<?xml version="1.0" standalone="no"?>
<!DOCTYPE svg PUBLIC "-//W3C//DTD SVG 20010904//EN"
 "http://www.w3.org/TR/2001/REC-SVG-20010904/DTD/svg10.dtd">
<svg version="1.0" xmlns="http://www.w3.org/2000/svg"
 width="1603.000000pt" height="227.000000pt" viewBox="0 0 1603.000000 227.000000"
 preserveAspectRatio="xMidYMid meet">
<metadata>
Created by potrace 1.14, written by Peter Selinger 2001-2017
</metadata>
<g transform="translate(0.000000,227.000000) scale(0.100000,-0.100000)"
fill="#000000" stroke="none">
<path d="M70 2132 c0 -36 2 -38 44 -50 68 -18 112 -62 126 -125 8 -37 10 -288
8 -862 -3 -926 3 -858 -91 -900 -29 -12 -60 -25 -70 -28 -12 -5 -17 -17 -17
-42 l0 -35 325 0 325 0 0 40 c0 32 -4 40 -18 40 -35 0 -117 49 -137 82 -19 31
-20 55 -23 446 l-3 412 420 0 421 0 0 -392 c0 -254 -4 -407 -11 -432 -14 -50
-56 -90 -114 -107 -43 -13 -45 -15 -45 -51 l0 -38 320 0 320 0 0 40 c0 32 -4
40 -18 40 -10 0 -41 11 -69 25 -94 47 -88 -15 -88 940 0 768 1 832 17 862 24
42 63 72 115 86 41 11 43 13 43 49 l0 38 -320 0 -320 0 0 -38 c0 -36 2 -38 51
-56 63 -22 94 -51 108 -102 7 -24 11 -168 11 -381 l0 -343 -420 0 -420 0 0
336 c0 214 4 351 11 380 14 55 62 99 124 115 44 11 45 13 45 50 l0 39 -325 0
-325 0 0 -38z"/>
<path d="M9000 2132 c0 -38 1 -39 55 -56 68 -21 101 -61 115 -139 7 -36 10
-334 8 -844 -3 -703 -5 -792 -19 -824 -21 -45 -61 -77 -116 -92 -41 -11 -43
-13 -43 -49 l0 -38 320 0 320 0 0 38 c0 37 -2 39 -42 51 -24 7 -57 23 -74 36
-55 42 -59 75 -59 505 l0 385 423 3 423 2 -3 -407 c-3 -381 -4 -410 -22 -446
-19 -35 -68 -67 -138 -91 -13 -4 -18 -16 -18 -41 l0 -35 320 0 320 0 0 38 c0
36 -2 38 -43 49 -56 15 -102 58 -116 109 -15 54 -15 1633 0 1688 13 48 49 82
111 104 46 16 48 18 48 54 l0 38 -320 0 -320 0 0 -38 c0 -36 2 -38 43 -49 52
-14 91 -44 115 -86 15 -28 17 -73 20 -389 l3 -358 -427 0 -426 0 4 348 c4 304
7 352 22 390 21 48 52 74 114 92 40 13 42 15 42 52 l0 38 -320 0 -320 0 0 -38z"/>
<path d="M14484 1851 c-47 -29 -64 -59 -64 -114 0 -44 4 -54 39 -88 35 -35 44
-39 88 -39 56 0 93 22 118 70 59 114 -72 237 -181 171z"/>
<path d="M5451 1482 c-25 -17 -117 -22 -165 -9 l-29 8 6 -160 5 -161 -99 0
c-92 0 -99 -1 -99 -20 0 -19 7 -20 100 -20 l100 0 0 -432 c1 -465 2 -472 54
-541 44 -58 103 -80 231 -85 99 -4 116 -2 163 18 64 28 115 84 138 153 13 40
14 51 3 58 -17 10 -29 2 -29 -19 0 -22 -36 -90 -64 -121 -11 -13 -39 -32 -61
-42 -80 -37 -156 -16 -196 54 l-24 42 -3 458 -3 457 176 0 c168 0 175 1 175
20 0 19 -7 20 -175 20 l-175 0 -2 169 -3 168 -24 -15z"/>
<path d="M4332 1179 c-133 -17 -260 -108 -330 -236 l-31 -58 -1 138 0 137
-200 0 c-193 0 -200 -1 -200 -20 0 -19 7 -20 95 -20 l95 0 0 -495 0 -495 -95
0 c-88 0 -95 -1 -95 -20 0 -20 7 -20 300 -20 293 0 300 0 300 20 0 19 -7 20
-95 20 l-95 0 0 323 c0 237 4 335 14 372 34 127 118 235 224 287 59 29 76 33
148 33 72 0 84 -3 116 -27 73 -56 73 -50 76 -546 l3 -442 -96 0 c-88 0 -95 -1
-95 -20 0 -20 7 -20 300 -20 293 0 300 0 300 20 0 19 -7 20 -95 20 l-95 0 0
358 c0 373 -7 468 -39 530 -43 84 -142 147 -247 157 -33 4 -68 8 -79 9 -11 2
-49 -1 -83 -5z"/>
<path d="M6413 1176 c-198 -48 -376 -232 -424 -436 -17 -74 -14 -219 6 -288
57 -193 196 -327 395 -378 46 -12 95 -15 179 -12 105 3 122 6 183 35 84 39
150 105 189 186 34 73 36 87 10 87 -14 0 -23 -11 -32 -38 -51 -156 -203 -251
-386 -240 -138 9 -229 79 -272 211 -31 95 -53 343 -35 391 5 14 49 16 385 16
l379 0 0 43 c0 111 -57 235 -148 317 -112 103 -274 143 -429 106z m204 -37
c85 -32 123 -119 123 -284 l0 -115 -255 0 -255 0 0 33 c0 52 27 165 53 220 52
113 117 157 234 157 39 0 84 -5 100 -11z"/>
<path d="M7854 1179 c-99 -13 -191 -89 -245 -203 l-29 -61 0 123 0 122 -200 0
c-193 0 -200 -1 -200 -20 0 -19 7 -20 95 -20 l95 0 0 -495 0 -495 -95 0 c-88
0 -95 -1 -95 -20 0 -20 7 -20 310 -20 303 0 310 0 310 20 0 19 -7 20 -111 20
l-111 0 4 343 c4 326 5 345 27 407 12 36 36 88 52 116 73 129 195 178 253 101
18 -25 19 -31 7 -80 -24 -98 -24 -131 -4 -150 30 -27 103 -33 148 -11 103 48
79 240 -37 300 -41 21 -113 31 -174 23z"/>
<path d="M11385 1175 c-74 -18 -117 -39 -159 -75 -54 -48 -88 -111 -89 -168
-3 -97 21 -122 114 -122 40 0 55 5 75 25 25 25 25 28 19 124 -6 79 -4 103 8
128 22 42 79 63 170 63 94 0 134 -20 165 -81 44 -89 39 -282 -10 -344 -29 -37
-93 -66 -268 -123 -85 -27 -178 -61 -205 -75 -96 -49 -145 -123 -145 -219 0
-109 34 -169 124 -216 48 -26 58 -27 191 -27 132 0 143 1 191 27 53 28 117 91
129 127 9 30 22 26 30 -8 10 -48 62 -111 108 -132 64 -29 186 -26 255 6 28 13
52 29 52 34 0 19 -20 22 -49 6 -37 -19 -110 -19 -135 0 -30 23 -35 85 -35 451
-1 380 -5 407 -66 487 -40 53 -129 101 -214 117 -71 13 -193 11 -256 -5z m322
-685 c-5 -184 -18 -243 -69 -305 -49 -59 -97 -78 -190 -73 -79 3 -80 4 -118
44 -49 53 -68 131 -52 218 19 103 73 153 231 216 134 53 180 77 189 98 12 30
14 -22 9 -198z"/>
<path d="M12897 1179 c-97 -15 -195 -100 -247 -212 l-29 -62 0 128 -1 127
-200 0 c-193 0 -200 -1 -200 -20 0 -19 7 -20 95 -20 l95 0 0 -495 0 -495 -95
0 c-88 0 -95 -1 -95 -20 0 -20 7 -20 316 -20 295 0 315 1 312 17 -3 16 -18 18
-111 21 l-107 3 0 318 c0 175 5 343 10 372 22 117 109 257 184 296 39 20 103
19 127 -3 24 -22 25 -92 3 -151 -22 -57 -12 -90 31 -109 43 -18 77 -18 120 0
49 21 68 56 68 125 -1 101 -63 181 -153 196 -68 12 -75 12 -123 4z"/>
<path d="M13913 1179 c-101 -13 -202 -102 -249 -216 l-24 -58 0 128 0 127
-200 0 c-193 0 -200 -1 -200 -20 0 -19 7 -20 95 -20 l95 0 0 -495 0 -495 -95
0 c-88 0 -95 -1 -95 -20 0 -20 7 -20 310 -20 303 0 310 0 310 20 0 19 -7 20
-111 20 l-111 0 5 337 c3 208 9 355 16 381 33 125 132 260 204 280 45 13 103
-1 117 -28 14 -27 12 -75 -5 -117 -20 -48 -19 -96 3 -116 28 -25 101 -32 145
-13 90 37 89 202 -1 278 -51 43 -124 59 -209 47z"/>
<path d="M15347 1180 c-97 -25 -183 -93 -229 -180 -31 -61 -38 -191 -13 -257
21 -56 76 -118 124 -143 20 -10 97 -39 171 -65 224 -78 271 -111 284 -199 24
-156 -78 -258 -241 -243 -151 14 -256 101 -324 267 -51 124 -59 110 -59 -95 0
-142 3 -175 14 -175 7 0 19 7 26 15 19 23 69 18 186 -16 94 -28 116 -31 202
-27 79 3 108 9 156 31 130 60 205 160 214 287 6 95 -15 155 -77 213 -62 58
-135 94 -296 147 -219 71 -276 108 -290 189 -15 89 44 183 133 209 72 22 177
17 231 -10 55 -28 108 -101 141 -195 13 -36 28 -63 36 -63 11 0 14 28 14 145
0 120 -3 145 -14 145 -8 0 -18 -4 -21 -10 -10 -16 -61 -11 -117 11 -60 24
-191 34 -251 19z"/>
<path d="M2090 1140 c0 -19 7 -20 95 -20 l95 0 0 -380 c0 -392 4 -446 43 -528
26 -56 107 -114 191 -137 98 -27 243 -18 314 19 71 36 130 97 178 182 l39 69
3 -127 3 -128 199 0 c193 0 200 1 200 20 0 19 -7 20 -95 20 l-95 0 0 515 0
515 -205 0 c-198 0 -205 -1 -205 -20 0 -19 7 -20 95 -20 l95 0 0 -314 c0 -172
-5 -338 -10 -367 -14 -75 -71 -189 -120 -243 -54 -58 -148 -106 -208 -106 -55
0 -121 30 -149 68 -51 69 -53 91 -53 562 l0 440 -205 0 c-198 0 -205 -1 -205
-20z"/>
<path d="M14250 1140 c0 -19 7 -20 100 -20 l100 0 0 -495 0 -494 -97 -3 c-84
-3 -98 -6 -101 -20 -3 -17 16 -18 297 -18 294 0 301 0 301 20 0 19 -7 20 -95
20 l-95 0 0 515 0 515 -205 0 c-198 0 -205 -1 -205 -20z"/>
</g>
</svg>
